<svg xmlns="http://www.w3.org/2000/svg" version="1.1" xmlns:xlink="http://www.w3.org/1999/xlink" xmlns:svgjs="http://svgjs.dev/svgjs" width="128" height="128" viewBox="0 0 128 128"><g transform="matrix(0.49282296650717705,0,0,0.49282296650717705,32.38715243509172,12.760752631578946)"><svg viewBox="0 0 58 95" data-background-color="#ffffff" preserveAspectRatio="xMidYMid meet" height="209" width="128" xmlns="http://www.w3.org/2000/svg" xmlns:xlink="http://www.w3.org/1999/xlink"><g id="tight-bounds" transform="matrix(1,0,0,1,0.06636363636363285,-0.24049999999999727)"><svg viewBox="0 0 57.86727272727273 95.481" height="95.481" width="57.86727272727273"><g><svg viewBox="0 0 57.86727272727273 95.481" height="95.481" width="57.86727272727273"><g><svg viewBox="0 0 57.86727272727273 95.481" height="95.481" width="57.86727272727273"><g><svg viewBox="0 0 57.86727272727273 95.481" height="95.481" width="57.86727272727273"><g><svg viewBox="0 0 57.86727272727273 95.481" height="95.481" width="57.86727272727273"><g><svg viewBox="0 0 57.86727272727273 95.481" height="95.481" width="57.86727272727273"><g><svg xmlns="http://www.w3.org/2000/svg" xmlns:xlink="http://www.w3.org/1999/xlink" version="1.1" x="0" y="0" viewBox="20 0 60 99" style="enable-background:new 0 0 100 100;" xml:space="preserve" height="95.481" width="57.86727272727273" class="icon-icon-0" data-fill-palette-color="accent" id="icon-0"><circle cx="64" cy="30" r="4.0" fill="#000000" data-fill-palette-color="accent"></circle><circle cx="36" cy="30" r="4.0" fill="#000000" data-fill-palette-color="accent"></circle><path d="M55 64c0-3.3 2.7-6 6-6v10c0 10.5 8.5 19 19 19V10c0 0-10-9-30.1-9C29.9 1 20 10 20 10v47c0 23.2 18.8 42 42 42h18v-6c-13.8 0-25-11.2-25-25V64zM49.9 51C35.1 51 26 43 26 38V14c23 0 23 25 24 28 1-3 1-28 24-28v24C74 42.1 64.8 51 49.9 51z" fill="#000000" data-fill-palette-color="accent"></path></svg></g></svg></g></svg></g></svg></g></svg></g></svg></g><defs></defs></svg><rect width="57.86727272727273" height="95.481" fill="none" stroke="none" visibility="hidden"></rect></g></svg></g></svg>