<svg xmlns="http://www.w3.org/2000/svg" version="1.1" xmlns:xlink="http://www.w3.org/1999/xlink" xmlns:svgjs="http://svgjs.dev/svgjs" width="1000" height="202" viewBox="0 0 1000 202"><g transform="matrix(1,0,0,1,-0.6060606060606233,-0.3768791697501257)"><svg viewBox="0 0 396 80" data-background-color="#ffffff" preserveAspectRatio="xMidYMid meet" height="202" width="1000" xmlns="http://www.w3.org/2000/svg" xmlns:xlink="http://www.w3.org/1999/xlink"><g id="tight-bounds" transform="matrix(1,0,0,1,0.2400000000000091,0.14925907712876096)"><svg viewBox="0 0 395.52 79.70148184574245" height="79.70148184574245" width="395.52"><g><svg viewBox="0 0 463.98978200982185 93.49887031620604" height="79.70148184574245" width="395.52"><g transform="matrix(1,0,0,1,68.46978200982184,1.6462656857412128)"><svg viewBox="0 0 395.52 90.20633894472361" height="90.20633894472361" width="395.52"><g><svg viewBox="0 0 395.52 90.20633894472361" height="90.20633894472361" width="395.52"><g><svg viewBox="0 0 395.52 90.20633894472361" height="90.20633894472361" width="395.52"><rect width="395.52" height="90.20633894472361" x="0" y="0" opacity="1" fill="#ffffff" data-fill-palette-color="tertiary"></rect><g transform="matrix(1,0,0,1,23.607599999999998,23.607599999999998)"><svg width="348.3048" viewBox="2.95 -37.65 318.38 39.3" height="42.991138944723616" data-palette-color="#ffffff"><path d="M2.95-18.05L2.95-18.05Q2.95-21.8 4.38-25.13 5.8-28.45 8.35-31.03 10.9-33.6 14.23-35.08 17.55-36.55 21.4-36.55L21.4-36.55Q25.2-36.55 28.53-35.08 31.85-33.6 34.43-31.03 37-28.45 38.45-25.13 39.9-21.8 39.9-18.05L39.9-18.05Q39.9-14.2 38.45-10.85 37-7.5 34.43-4.98 31.85-2.45 28.53-1.03 25.2 0.4 21.4 0.4L21.4 0.4Q17.55 0.4 14.23-1 10.9-2.4 8.35-4.9 5.8-7.4 4.38-10.75 2.95-14.1 2.95-18.05ZM7.95-18L7.95-18Q7.95-15.15 9-12.68 10.05-10.2 11.9-8.3 13.75-6.4 16.2-5.33 18.65-4.25 21.5-4.25L21.5-4.25Q24.3-4.25 26.75-5.33 29.2-6.4 31-8.3 32.8-10.2 33.85-12.68 34.9-15.15 34.9-18.05L34.9-18.05Q34.9-20.9 33.85-23.43 32.8-25.95 30.95-27.85 29.1-29.75 26.65-30.83 24.2-31.9 21.4-31.9L21.4-31.9Q18.55-31.9 16.1-30.8 13.65-29.7 11.8-27.8 9.95-25.9 8.95-23.38 7.95-20.85 7.95-18ZM56.65 1.65L42.25-35.95 47.85-35.95 57.65-8.35 56.8-8.7 63.95-27.2 66.2-20.65 56.65 1.65ZM74.35 1.6L59.6-35.95 64.45-35.95 75.05-8.75 74.05-8.95 83.4-35.95 88.55-35.95 74.35 1.6ZM95.8 0L95.8-36.15 100.65-36.15 100.65-4.65 119-4.65 119 0 95.8 0ZM147.44-33.4L145.59-29.7Q143.74-30.65 141.54-31.35 139.34-32.05 137.24-32.05L137.24-32.05Q134.34-32.05 132.62-30.7 130.89-29.35 130.89-27.1L130.89-27.1Q130.89-25.4 131.99-24.23 133.09-23.05 134.89-22.2 136.69-21.35 138.64-20.6L138.64-20.6Q140.34-19.95 141.99-19.15 143.64-18.35 144.97-17.15 146.29-15.95 147.07-14.2 147.84-12.45 147.84-9.85L147.84-9.85Q147.84-7 146.42-4.65 144.99-2.3 142.34-0.95 139.69 0.4 136.04 0.4L136.04 0.4Q133.64 0.4 131.47-0.15 129.29-0.7 127.44-1.58 125.59-2.45 124.14-3.4L124.14-3.4 126.29-7.2Q127.49-6.35 129.04-5.58 130.59-4.8 132.29-4.33 133.99-3.85 135.59-3.85L135.59-3.85Q137.29-3.85 138.97-4.48 140.64-5.1 141.74-6.4 142.84-7.7 142.84-9.85L142.84-9.85Q142.84-11.7 141.87-12.93 140.89-14.15 139.29-15.03 137.69-15.9 135.89-16.6L135.89-16.6Q134.19-17.25 132.44-18.03 130.69-18.8 129.19-19.93 127.69-21.05 126.79-22.7 125.89-24.35 125.89-26.7L125.89-26.7Q125.89-29.55 127.27-31.68 128.64-33.8 131.04-35.02 133.44-36.25 136.54-36.35L136.54-36.35Q140.04-36.35 142.72-35.5 145.39-34.65 147.44-33.4L147.44-33.4ZM153.09-31.5L153.09-36.15 177.09-36.15 177.09-31.5 167.39-31.5 167.39 0 162.54 0 162.54-31.5 153.09-31.5ZM184.79-36.15L194.39-36.15Q197.14-36.15 199.46-35.43 201.79-34.7 203.51-33.27 205.24-31.85 206.21-29.78 207.19-27.7 207.19-24.95L207.19-24.95Q207.19-22.8 206.56-20.75 205.94-18.7 204.49-17.03 203.04-15.35 200.71-14.33 198.39-13.3 194.99-13.3L194.99-13.3 189.64-13.3 189.64 0 184.79 0 184.79-36.15ZM189.64-17.95L194.89-17.95Q197.04-17.95 198.46-18.6 199.89-19.25 200.69-20.28 201.49-21.3 201.84-22.5 202.19-23.7 202.19-24.75L202.19-24.75Q202.19-25.85 201.81-27.03 201.44-28.2 200.61-29.2 199.79-30.2 198.46-30.85 197.14-31.5 195.24-31.5L195.24-31.5 189.64-31.5 189.64-17.95ZM195.09-15.05L200.84-15.2 210.29 0 204.69 0 195.09-15.05ZM217.74 0L217.74-36.15 241.24-36.15 241.24-31.5 222.59-31.5 222.59-20.5 239.24-20.5 239.24-15.85 222.59-15.85 222.59-4.65 241.94-4.65 241.94 0 217.74 0ZM251.48 0L246.73 0 262.53-37.65 262.83-37.65 278.58 0 273.03 0 261.23-30.05 264.68-32.3 251.48 0ZM254.58-9.5L255.98-13.7 269.43-13.7 271.03-9.5 254.58-9.5ZM290.08 0L285.38 0 285.38-37.3 285.43-37.3 304.38-10.4 302.33-10.8 321.23-37.3 321.33-37.3 321.33 0 316.53 0 316.53-26.3 316.83-23.85 303.18-4.55 303.08-4.55 289.23-23.85 290.08-26.1 290.08 0Z" opacity="1" transform="matrix(1,0,0,1,0,0)" fill="#000000" class="undefined-text-0" data-fill-palette-color="quaternary" id="text-0"></path></svg></g></svg></g></svg></g></svg></g><g><svg viewBox="0 0 56.66598200982184 93.49887031620604" height="93.49887031620604" width="56.66598200982184"><g><svg xmlns="http://www.w3.org/2000/svg" xmlns:xlink="http://www.w3.org/1999/xlink" version="1.1" x="0" y="0" viewBox="20 0 60 99" style="enable-background:new 0 0 100 100;" xml:space="preserve" height="93.49887031620604" width="56.66598200982184" class="icon-icon-0" data-fill-palette-color="accent" id="icon-0"><circle cx="64" cy="30" r="4.0" fill="#ffffff" data-fill-palette-color="accent"></circle><circle cx="36" cy="30" r="4.0" fill="#ffffff" data-fill-palette-color="accent"></circle><path d="M55 64c0-3.3 2.7-6 6-6v10c0 10.5 8.5 19 19 19V10c0 0-10-9-30.1-9C29.9 1 20 10 20 10v47c0 23.2 18.8 42 42 42h18v-6c-13.8 0-25-11.2-25-25V64zM49.9 51C35.1 51 26 43 26 38V14c23 0 23 25 24 28 1-3 1-28 24-28v24C74 42.1 64.8 51 49.9 51z" fill="#ffffff" data-fill-palette-color="accent"></path></svg></g></svg></g></svg></g><defs></defs></svg><rect width="395.52" height="79.70148184574245" fill="none" stroke="none" visibility="hidden"></rect></g></svg></g></svg>